<?xml version="1.0" encoding="iso-8859-1"?>
<!-- Generator: Adobe Illustrator 19.0.0, SVG Export Plug-In . SVG Version: 6.00 Build 0)  -->
<svg version="1.1" id="Capa_1" xmlns="http://www.w3.org/2000/svg" xmlns:xlink="http://www.w3.org/1999/xlink" x="0px" y="0px"
	 viewBox="0 0 512 512" style="enable-background:new 0 0 512 512;" xml:space="preserve">
<path style="fill:#50B9E9;" d="M356,256c0-33.137,26.863-60,60-60V60H316c0-33.137-26.863-60-60-60s-60,26.863-60,60H96v136
	c33.137,0,60,26.863,60,60s-26.863,60-60,60v136h100c0,33.137,26.863,60,60,60s60-26.863,60-60h100V316
	C382.863,316,356,289.137,356,256z"/>
<path style="fill:#009AE1;" d="M416,196V60H316c0-33.137-26.863-60-60-60v512c33.137,0,60-26.863,60-60h100V316
	c-33.137,0-60-26.863-60-60S382.863,196,416,196z"/>
<g>
</g>
<g>
</g>
<g>
</g>
<g>
</g>
<g>
</g>
<g>
</g>
<g>
</g>
<g>
</g>
<g>
</g>
<g>
</g>
<g>
</g>
<g>
</g>
<g>
</g>
<g>
</g>
<g>
</g>
</svg>
